<svg width="700" height="102" viewBox="0 0 700 102" fill="none" xmlns="http://www.w3.org/2000/svg">
<g clip-path="url(#clip0_1_51)">
<path d="M219.234 88.7799C203.134 88.7799 195.67 72.9665 195.67 57.177C195.67 44.378 201.555 37.0574 210.191 37.0574C216.651 37.0574 221.818 40.2153 226.866 47.823H227.297L236.483 38.4928C230.167 33.756 221.244 31.3158 214.785 31.3158C193.66 31.3158 181.029 45.9809 181.029 66.6507C181.029 86.0526 194.234 101.124 212.344 101.124C225.718 101.124 235.048 94.9521 237.775 81.5789L236.914 81.1483C232.895 85.8852 226.292 88.756 219.234 88.756V88.7799Z" fill="black"/>
<path d="M97.7033 31.3158C84.3301 31.3158 75 37.488 72.2727 50.8612L73.134 51.2919C77.1531 46.555 83.756 43.6842 90.8134 43.6842C106.914 43.6842 114.378 59.4976 114.378 75.2871C114.378 88.0861 108.493 95.3349 99.8565 95.4067C91.4593 95.4785 84.378 85.9569 79.3541 78.4211L62.7033 51.0526C58.2775 43.7799 49.8804 33.8278 39.067 31.7464C37.2249 31.3876 35.4067 31.3158 33.756 31.3158C12.6316 31.3158 0 45.9809 0 66.6507C0 86.0526 13.2057 101.124 31.3158 101.124C44.689 101.124 54.0191 94.9521 56.7464 81.5789L55.8852 81.1483C51.866 85.8852 45.2632 88.756 38.2057 88.756C22.1053 88.756 14.6411 72.9426 14.6411 57.1531C14.6411 44.3541 20.5263 37.0574 29.1627 37.0335C37.2249 37.0335 44.2344 45.933 49.2584 53.5646L65.4306 80.5981C69.2584 86.9617 76.6507 97.3923 86.4354 99.9043C89.5694 100.718 92.6316 101.124 95.2631 101.124C116.388 101.124 129.019 86.4593 129.019 65.7895C129.019 46.3876 115.813 31.3158 97.7033 31.3158Z" fill="black"/>
<path d="M304.426 90.6459C300.981 90.6459 299.545 87.9187 299.545 81.6029V56.89C299.545 41.3876 290.502 30.7416 274.976 30.7416C268.804 30.7416 263.206 32.6077 258.158 36.3397C253.134 39.9282 249.689 44.5215 247.823 50.1435L248.684 50.7177C253.708 45.1196 261.053 41.8182 268.947 41.8182C278.278 41.8182 285.191 47.4163 285.191 58.9234V61.3636C258.038 63.0861 244.234 70.5502 244.234 85.5024C244.234 95.1435 252.416 101.746 262.775 101.746C272.105 101.746 280.742 97.0096 285.335 89.378C286.053 97.4163 289.354 101.435 295.239 101.435C301.411 101.435 306.579 97.2727 308.445 90.3828L307.584 89.8086C306.722 90.3828 305.718 90.6699 304.426 90.6699V90.6459ZM285.167 84.7608C281.292 88.6364 276.411 90.6459 270.215 90.6459C262.321 90.6459 256.842 85.7655 256.842 78.7321C256.842 72.5598 262.01 68.8278 269.498 68.8278C274.091 68.8278 279.258 69.5455 285.167 70.8373V84.7847V84.7608Z" fill="black"/>
<path d="M384.043 90.6459C380.598 90.6459 379.163 87.9187 379.163 81.6029V31.1723L378.301 30.7416L360.478 36.0526V36.9139L364.785 46.244V84.4498C361.196 88.0383 355.024 90.622 349.976 90.622C340.646 90.622 336.053 84.4498 336.053 72.0813V31.1723L335.191 30.7416L317.368 36.0526V36.9139L321.675 46.244V74.1148C321.675 90.933 328.995 101.699 343.517 101.699C351.555 101.699 360.191 97.1053 364.928 88.4928C365.359 97.1053 368.66 101.411 374.833 101.411C381.005 101.411 386.172 97.2488 388.038 90.3589L387.177 89.7847C386.316 90.3589 385.311 90.6459 384.019 90.6459H384.043Z" fill="black"/>
<path d="M421.531 36.7703C427.703 36.7703 433.589 40.7895 438.062 47.823H438.636L447.823 38.4928C442.225 34.0431 433.014 31.3158 423.684 31.3158C408.589 31.3158 398.11 39.6412 398.11 51.7225C398.11 60.3349 403.708 66.5311 416.507 71.2679L422.967 73.7081C431.723 77.0096 435.167 80.5981 435.167 86.3636C435.167 92.1292 430.861 95.6938 424.115 95.6938C416.22 95.6938 409.306 90.2392 404.282 79.7608H403.708L395.957 92.2488C402.99 98.134 411.627 101.148 421.962 101.148C436.914 101.148 447.105 93.2536 447.105 81.3158C447.105 71.6746 442.656 66.0766 432.153 61.9139L424.976 59.0431C413.636 54.5933 410.024 51.2919 410.024 45.6699C410.024 40.3589 414.761 36.7703 421.507 36.7703H421.531Z" fill="black"/>
<path d="M515.646 90.6459C512.201 90.6459 510.766 87.9187 510.766 81.6029V56.89C510.766 41.3876 501.722 30.7416 486.196 30.7416C480.024 30.7416 474.426 32.6077 469.378 36.3397C464.354 39.9282 460.909 44.5215 459.043 50.1435L459.904 50.7177C464.928 45.1196 472.273 41.8182 480.167 41.8182C489.498 41.8182 496.411 47.4163 496.411 58.9234V61.3636C469.258 63.0861 455.455 70.5502 455.455 85.5024C455.455 95.1435 463.636 101.746 473.995 101.746C483.325 101.746 491.962 97.0096 496.555 89.378C497.273 97.4163 500.574 101.435 506.459 101.435C512.632 101.435 517.799 97.2727 519.665 90.3828L518.804 89.8086C517.943 90.3828 516.938 90.6699 515.646 90.6699V90.6459ZM496.388 84.7608C492.512 88.6364 487.632 90.6459 481.435 90.6459C473.541 90.6459 468.062 85.7655 468.062 78.7321C468.062 72.5598 473.23 68.8278 480.718 68.8278C485.311 68.8278 490.478 69.5455 496.388 70.8373V84.7847V84.7608Z" fill="black"/>
<path d="M568.23 30.7416C558.612 30.7416 550.55 35.3349 545.813 43.8038V0.430622L544.952 0L527.129 5.311V6.17225L531.435 15.5024V100.694L532.153 101.124L543.923 96.5311C548.947 99.5454 555.12 101.124 562.321 101.124C582.297 101.124 596.364 86.4593 596.364 65.3588C596.364 44.2584 584.593 30.7416 568.206 30.7416H568.23ZM564.498 95.9569C557.033 95.9569 549.832 91.5072 545.813 83.8756V47.9665C549.402 44.0909 555 41.7943 560.335 41.7943C573.134 41.7943 582.033 54.2823 582.033 71.5311C582.033 86.4593 575.287 95.9569 564.498 95.9569Z" fill="black"/>
<path d="M625.694 0.430622L624.832 0L607.01 5.311V6.17225L611.34 15.5024V89.6411L607.01 99.1387V100H630V99.1387L625.694 89.6411V0.430622Z" fill="black"/>
<path d="M699.258 62.7751L699.976 62.201C700.55 45.3828 691.077 30.7416 671.962 30.7416C652.847 30.7416 639.498 46.4115 639.498 66.2201C639.498 87.6316 653.158 101.699 672.536 101.699C686.459 101.699 695.813 95.3828 698.828 82.7273L697.966 82.2967C693.804 87.3206 687.464 89.9043 679.139 89.9043C664.617 89.9043 654.569 79.8325 653.852 62.177C663.469 62.6077 674.976 62.7512 688.612 62.7512H699.234L699.258 62.7751ZM653.852 57.3206C654.569 44.6651 660.742 36.1962 669.378 36.1962C677.273 36.1962 683.445 42.512 684.761 55.5981L653.876 57.3206H653.852Z" fill="black"/>
</g>
<defs>
<clipPath id="clip0_1_51">
<rect width="700" height="101.722" fill="white"/>
</clipPath>
</defs>
</svg>
