<svg width="218" height="118" viewBox="0 0 218 118" fill="none" xmlns="http://www.w3.org/2000/svg">
<path d="M164.562 0.0276574C142.048 0.0276574 126.339 10.4268 121.72 32.94L123.186 33.6591C129.962 25.6661 141.08 20.826 152.946 20.826C180.05 20.826 192.634 47.4325 192.634 74.0666C192.634 95.6117 182.705 107.836 168.185 107.947C154.024 108.058 142.104 92.0439 133.668 79.3491L105.651 33.2719C98.2115 21.0196 84.0509 4.25924 65.8247 0.74675C62.727 0.138287 59.657 0.0276574 56.8636 0.0276574C21.2962 0.0276574 0 24.7257 0 59.5464C0 92.2098 22.2642 117.627 52.7427 117.627C75.2558 117.627 90.9652 107.228 95.584 84.7147L94.1182 83.9956C87.3421 91.9886 76.2238 96.8286 64.3588 96.8286C37.2545 96.8286 24.6704 70.2222 24.6704 43.5881C24.6704 22.043 34.5994 9.73541 49.1196 9.70775C62.6994 9.6801 74.4814 24.6981 82.9722 37.5311L110.187 83.0276C116.631 93.731 129.077 111.321 145.561 115.553C150.816 116.908 155.988 117.599 160.441 117.599C196.008 117.599 217.304 92.9013 217.304 58.0806C217.304 25.4172 195.04 0 164.562 0V0.0276574Z" fill="#DA928A"/>
</svg>
