<svg width="49" height="49" viewBox="0 0 49 49" fill="none" xmlns="http://www.w3.org/2000/svg">
<circle cx="24.5" cy="24.5" r="24.5" fill="#00B2C2"/>
<path d="M39.3157 16.8772L39.2366 16.8479L39.1944 16.921L38.5672 18.0082L38.5203 18.0893L38.5983 18.1413C40.2456 19.2395 41.0626 20.7008 41.0626 22.5322C41.0626 23.4938 40.8704 24.3121 40.4907 24.9908C40.0809 25.6734 39.5349 26.2331 38.8515 26.6706C38.1373 27.11 37.3116 27.4406 36.3733 27.6614C35.4058 27.8825 34.3681 27.9933 33.2599 27.9933C32.487 27.9933 31.6857 27.9106 30.8559 27.7447C30.0281 27.5514 29.2847 27.2758 28.625 26.9186C27.9388 26.5342 27.3928 26.0692 26.9843 25.5245L26.9838 25.5239C26.5524 24.9577 26.3352 24.2826 26.3352 23.4939C26.3352 22.952 26.457 22.4376 26.701 21.9497L26.701 21.9497L26.7019 21.9478C26.8212 21.696 26.9739 21.5131 27.1577 21.3928C27.3411 21.2726 27.5618 21.2105 27.8241 21.2105C28.0391 21.2105 28.2832 21.2374 28.5572 21.2922L28.5571 21.2927L28.5668 21.2936C28.8444 21.3214 29.0308 21.3359 29.1204 21.3359C29.7608 21.3359 30.2598 21.1903 30.5989 20.8813C30.9398 20.5707 31.102 20.111 31.102 19.5216C31.102 18.9385 30.8972 18.4008 30.4938 17.9109L30.4938 17.9109L30.4916 17.9083C30.0573 17.4161 29.5433 17.1637 28.9531 17.1637C28.3492 17.1637 27.7876 17.3221 27.2702 17.6383C26.7554 17.9529 26.327 18.3815 25.9851 18.922C25.6162 19.4334 25.3335 20.0284 25.1359 20.7056C24.938 21.356 24.839 22.0207 24.839 22.6994C24.839 24.2714 25.1057 25.6517 25.6421 26.8378C26.1495 27.9932 26.8548 28.9669 27.7583 29.7575L27.7597 29.7587C28.6619 30.5199 29.7046 31.0974 30.8867 31.4915L30.8867 31.4915L30.8888 31.4921C32.0698 31.8577 33.3202 32.0402 34.6397 32.0402C35.9031 32.0402 37.0838 31.8717 38.1814 31.534L38.1815 31.534L38.1837 31.5333C39.2814 31.1673 40.2404 30.6459 41.0591 29.9683C41.8791 29.2897 42.5153 28.4555 42.9674 27.4669C43.4484 26.4762 43.6878 25.3603 43.6878 24.1211C43.6878 23.4437 43.6031 22.7392 43.4343 22.0079C43.2652 21.2751 43.0115 20.5842 42.6729 19.9353L42.6722 19.9339C42.3053 19.2566 41.8535 18.6494 41.3169 18.1129L41.317 18.1128L41.3151 18.1111C40.7473 17.5717 40.0805 17.1605 39.3157 16.8772Z" fill="white" stroke="white" stroke-width="0.2"/>
<path d="M9.03089 31.7961L9.11006 31.8254L9.15224 31.7523L9.77944 30.6652L9.82628 30.584L9.74829 30.532C8.10106 29.4338 7.28402 27.9725 7.28402 26.1412C7.28402 25.1795 7.47618 24.3613 7.85593 23.6825C8.26574 23 8.81175 22.4402 9.49511 22.0027C10.2093 21.5633 11.035 21.2327 11.9734 21.0119C12.9408 20.7908 13.9785 20.68 15.0867 20.68C15.8596 20.68 16.6609 20.7628 17.4907 20.9286C18.3185 21.1219 19.0619 21.3975 19.7216 21.7547C20.4078 22.1391 20.9539 22.6041 21.3624 23.1488L21.3628 23.1494C21.7942 23.7156 22.0114 24.3907 22.0114 25.1795C22.0114 25.7214 21.8896 26.2357 21.6456 26.7236L21.6447 26.7256C21.5254 26.9773 21.3727 27.1602 21.189 27.2806C21.0055 27.4007 20.7848 27.4628 20.5225 27.4628C20.3076 27.4628 20.0634 27.4359 19.7894 27.3811L19.7895 27.3807L19.7798 27.3797C19.5023 27.3519 19.3158 27.3374 19.2263 27.3374C18.5858 27.3374 18.0869 27.4831 17.7477 27.7921C17.4068 28.1027 17.2447 28.5623 17.2447 29.1517C17.2447 29.7348 17.4494 30.2725 17.8529 30.7624L17.8528 30.7624L17.8551 30.765C18.2894 31.2572 18.8033 31.5097 19.3935 31.5097C19.9974 31.5097 20.559 31.3512 21.0764 31.035C21.5913 30.7204 22.0196 30.2919 22.3615 29.7513C22.7304 29.24 23.0131 28.645 23.2107 27.9678C23.4086 27.3174 23.5076 26.6526 23.5076 25.9739C23.5076 24.4019 23.2409 23.0216 22.7045 21.8355C22.1972 20.6801 21.4918 19.7064 20.5883 18.9158L20.5883 18.9158L20.587 18.9147C19.6847 18.1534 18.642 17.5759 17.4599 17.1819L17.4599 17.1819L17.4579 17.1812C16.2769 16.8157 15.0264 16.6332 13.7069 16.6332C12.4436 16.6332 11.2628 16.8016 10.1652 17.1394L10.1652 17.1393L10.163 17.1401C9.06518 17.506 8.10627 18.0274 7.28752 18.705C6.46753 19.3836 5.83132 20.2178 5.37921 21.2064C4.89824 22.1971 4.65885 23.313 4.65885 24.5523C4.65885 25.2296 4.74352 25.9341 4.91229 26.6654C5.0814 27.3982 5.33517 28.0892 5.67371 28.738L5.6737 28.7381L5.67444 28.7394C6.04135 29.4168 6.49312 30.0239 7.02969 30.5605L7.02966 30.5605L7.03152 30.5623C7.59928 31.1016 8.26611 31.5129 9.03089 31.7961Z" fill="white" stroke="white" stroke-width="0.2"/>
</svg>
