<svg width="186" height="185" viewBox="0 0 186 185" fill="none" xmlns="http://www.w3.org/2000/svg">
<g clip-path="url(#clip0_2_76)">
<path d="M66.34 0H103.06V116.83H66.34V0Z" fill="#F9F1EF"/>
<path d="M74.47 9.64H111.19V126.47H74.47V9.64Z" stroke="black" stroke-width="1.29"/>
<path d="M155.96 69.01C159.25 78.43 160.89 87.73 160.89 96.9C160.89 106.07 159.25 115.38 155.96 124.79C152.67 134.2 147.06 142.89 139.11 150.83L128.22 140.97C134.8 134.39 139.35 127.42 141.88 120.06C144.41 112.7 145.68 104.97 145.68 96.89C145.68 88.81 144.41 81.09 141.88 73.72C139.35 66.36 134.79 59.39 128.22 52.81L139.11 42.95C147.05 50.9 152.67 59.58 155.96 68.99V69.01Z" fill="#005DB9"/>
<path d="M163.24 42.97C171.18 50.92 176.8 59.6 180.09 69.01C183.38 78.43 185.02 87.73 185.02 96.9C185.02 106.07 183.38 115.38 180.09 124.79C176.8 134.21 171.19 142.89 163.24 150.83" stroke="black" stroke-width="1.29" stroke-miterlimit="10"/>
<path d="M46.55 42.97L57.44 52.83C50.86 59.41 46.31 66.38 43.78 73.74C41.25 81.1 39.98 88.83 39.98 96.91C39.98 104.99 41.25 112.72 43.78 120.08C46.31 127.44 50.87 134.41 57.44 140.99L46.55 150.85C38.61 142.9 32.99 134.22 29.7 124.81C26.41 115.39 24.77 106.1 24.77 96.92C24.77 87.74 26.41 78.44 29.7 69.03C32.99 59.61 38.6 50.93 46.55 42.99V42.97Z" fill="#005DB9"/>
<path d="M22.43 150.85C14.49 142.9 8.87002 134.22 5.58002 124.81C2.29002 115.39 0.650024 106.1 0.650024 96.92C0.650024 87.74 2.29002 78.44 5.58002 69.03C8.87002 59.61 14.48 50.93 22.43 42.99" stroke="black" stroke-width="1.29" stroke-miterlimit="10"/>
<path d="M76.74 177.61C72.37 173.24 70.18 167.88 70.18 161.52C70.18 155.16 72.36 149.8 76.74 145.43C81.11 141.06 86.47 138.87 92.83 138.87C99.19 138.87 104.55 141.06 108.92 145.43C113.29 149.8 115.48 155.17 115.48 161.52C115.48 167.87 113.29 173.24 108.92 177.61C104.55 181.98 99.18 184.17 92.83 184.17C86.48 184.17 81.11 181.98 76.74 177.61Z" fill="#D50058"/>
</g>
<defs>
<clipPath id="clip0_2_76">
<rect width="185.66" height="184.17" fill="white"/>
</clipPath>
</defs>
</svg>
