<svg width="279" height="254" viewBox="0 0 279 254" fill="none" xmlns="http://www.w3.org/2000/svg">
<g clip-path="url(#clip0_2_147)">
<path d="M125.94 144.88C121.57 140.51 119.38 135.15 119.38 128.79C119.38 122.43 121.56 117.07 125.94 112.7C130.31 108.33 135.67 106.14 142.03 106.14C148.39 106.14 153.75 108.33 158.12 112.7C162.49 117.07 164.68 122.44 164.68 128.79C164.68 135.14 162.49 140.51 158.12 144.88C153.75 149.25 148.38 151.44 142.03 151.44C135.68 151.44 130.31 149.25 125.94 144.88Z" fill="#D50058"/>
<path d="M70.68 198.91C70.68 198.91 122.23 233.47 213.87 193.38C213.87 193.38 242.02 183.29 241.13 171.31C240.24 159.32 202.06 173.09 202.06 173.09C202.06 173.09 223.82 165.1 221.15 153.11C218.49 141.12 175.42 163.77 175.42 163.77" stroke="black" stroke-width="1.29" stroke-miterlimit="10"/>
<path d="M90.19 158.49C90.19 158.49 107.7 167.53 141.02 169.79C174.34 172.05 164.74 181.17 164.74 181.17C164.74 181.17 157.4 194.64 121.81 188.99" stroke="black" stroke-width="1.29" stroke-miterlimit="10"/>
<path d="M53.9186 216.729L24.3559 154.217L0.00190569 165.734L29.5646 228.246L53.9186 216.729Z" fill="#005DB9"/>
<path d="M17.36 171.3L37.28 158.65L69.76 218.82L11.18 252.67" stroke="black" stroke-width="1.29" stroke-miterlimit="10"/>
<path d="M212.16 50.3C212.16 50.3 160.61 15.74 68.97 55.83C68.97 55.83 40.82 65.92 41.71 77.9C42.6 89.89 80.78 76.12 80.78 76.12C80.78 76.12 59.02 84.11 61.69 96.1C64.35 108.09 107.42 85.44 107.42 85.44" stroke="black" stroke-width="1.29" stroke-miterlimit="10"/>
<path d="M192.65 90.71C192.65 90.71 175.14 81.67 141.82 79.41C108.5 77.15 118.1 68.03 118.1 68.03C118.1 68.03 125.44 54.56 161.03 60.21" stroke="black" stroke-width="1.29" stroke-miterlimit="10"/>
<path d="M224.943 36.5034L254.505 99.0156L278.859 87.4983L249.297 24.9861L224.943 36.5034Z" fill="#E4BAB4"/>
<path d="M261.5 81.93L241.58 94.58L209.11 34.4L267.69 0.559998" stroke="black" stroke-width="1.29" stroke-miterlimit="10"/>
</g>
<defs>
<clipPath id="clip0_2_147">
<rect width="278.86" height="253.23" fill="white"/>
</clipPath>
</defs>
</svg>
