<svg width="205" height="195" viewBox="0 0 205 195" fill="none" xmlns="http://www.w3.org/2000/svg">
<g clip-path="url(#clip0_2_84)">
<path d="M141.88 10.14H28.61C16.6033 10.14 6.87 19.8733 6.87 31.88V97.18C6.87 109.187 16.6033 118.92 28.61 118.92H141.88C153.887 118.92 163.62 109.187 163.62 97.18V31.88C163.62 19.8733 153.887 10.14 141.88 10.14Z" fill="#F9F1EF"/>
<path d="M135.65 0.639999H22.38C10.3733 0.639999 0.640015 10.3733 0.640015 22.38V87.68C0.640015 99.6867 10.3733 109.42 22.38 109.42H135.65C147.657 109.42 157.39 99.6867 157.39 87.68V22.38C157.39 10.3733 147.657 0.639999 135.65 0.639999Z" stroke="black" stroke-width="1.29" stroke-miterlimit="10"/>
<path d="M157.4 82.14C131.55 82.14 110.6 103.09 110.6 128.94C110.6 154.79 157.4 194.93 157.4 194.93C157.4 194.93 204.2 154.79 204.2 128.94C204.2 103.09 183.25 82.14 157.4 82.14ZM157.4 146.75C147.56 146.75 139.59 138.78 139.59 128.94C139.59 119.1 147.56 111.13 157.4 111.13C167.24 111.13 175.21 119.1 175.21 128.94C175.21 138.78 167.24 146.75 157.4 146.75Z" fill="#005DB9"/>
<path d="M75.45 24.01C61.23 24.01 49.7 35.54 49.7 49.76C49.7 63.98 75.45 86.06 75.45 86.06C75.45 86.06 101.2 63.98 101.2 49.76C101.2 35.54 89.67 24.01 75.45 24.01ZM75.45 59.55C70.04 59.55 65.65 55.16 65.65 49.75C65.65 44.34 70.04 39.95 75.45 39.95C80.86 39.95 85.25 44.34 85.25 49.75C85.25 55.16 80.86 59.55 75.45 59.55Z" fill="black"/>
</g>
<defs>
<clipPath id="clip0_2_84">
<rect width="204.2" height="194.92" fill="white"/>
</clipPath>
</defs>
</svg>
