<svg width="207" height="199" viewBox="0 0 207 199" fill="none" xmlns="http://www.w3.org/2000/svg">
<g clip-path="url(#clip0_2_126)">
<path d="M160.01 68.64L168.11 30.34L206.41 38.45" stroke="black" stroke-width="1.29" stroke-miterlimit="10"/>
<path d="M70.46 51.1C43.58 51.1 21.79 72.89 21.79 99.77C21.79 126.65 43.58 148.44 70.46 148.44C97.34 148.44 119.13 126.65 119.13 99.77C119.13 72.89 97.34 51.1 70.46 51.1ZM70.46 114.25C62.46 114.25 55.98 107.77 55.98 99.77C55.98 91.77 62.46 85.29 70.46 85.29C78.46 85.29 84.94 91.77 84.94 99.77C84.94 107.77 78.46 114.25 70.46 114.25Z" fill="#005DB9"/>
<path d="M168.62 30.34C201.76 82.11 186.67 150.94 134.9 184.09C93.49 210.61 38.42 198.53 11.9 157.11C-9.32 123.98 0.350002 79.93 33.48 58.72C59.99 41.75 95.23 49.48 112.2 75.98C125.78 97.18 119.59 125.38 98.39 138.96" stroke="black" stroke-width="1.29" stroke-miterlimit="10"/>
<path d="M153.15 13.72C156.939 13.72 160.01 10.6487 160.01 6.86C160.01 3.07133 156.939 0 153.15 0C149.361 0 146.29 3.07133 146.29 6.86C146.29 10.6487 149.361 13.72 153.15 13.72Z" fill="#D50058"/>
</g>
<defs>
<clipPath id="clip0_2_126">
<rect width="206.55" height="198.8" fill="white"/>
</clipPath>
</defs>
</svg>
