<svg width="237" height="238" viewBox="0 0 237 238" fill="none" xmlns="http://www.w3.org/2000/svg">
<g clip-path="url(#clip0_2_157)">
<path d="M176.68 65.54V119.78H125.43V173.26H74.82V223.88H125.43H176.68H227.93V65.54H176.68Z" fill="#F9F1EF"/>
<path d="M176.84 52.98L161.56 73.99C161.18 54.57 144.37 52.98 144.37 52.98C100.8 48.37 93.44 118.56 93.44 118.56C93.44 118.56 93.05 86.85 65.64 92.96C29.25 101.07 6.85999 230.44 6.85999 230.44" stroke="black" stroke-width="1.29" stroke-miterlimit="10"/>
<path d="M133.7 173.26H83.09V223.87H133.7V173.26Z" stroke="black" stroke-width="1.29" stroke-miterlimit="10"/>
<path d="M184.96 119.78H133.71V223.87H184.96V119.78Z" stroke="black" stroke-width="1.29" stroke-miterlimit="10"/>
<path d="M236.21 65.54H184.96V223.88H236.21V65.54Z" stroke="black" stroke-width="1.29" stroke-miterlimit="10"/>
<path d="M205.17 46.48C218.005 46.48 228.41 36.0751 228.41 23.24C228.41 10.4049 218.005 0 205.17 0C192.335 0 181.93 10.4049 181.93 23.24C181.93 36.0751 192.335 46.48 205.17 46.48Z" fill="#005DB9"/>
<path d="M159.6 81.81C163.389 81.81 166.46 78.7387 166.46 74.95C166.46 71.1613 163.389 68.09 159.6 68.09C155.811 68.09 152.74 71.1613 152.74 74.95C152.74 78.7387 155.811 81.81 159.6 81.81Z" fill="#D50058"/>
<path d="M94.1 126.64C97.8887 126.64 100.96 123.569 100.96 119.78C100.96 115.991 97.8887 112.92 94.1 112.92C90.3113 112.92 87.24 115.991 87.24 119.78C87.24 123.569 90.3113 126.64 94.1 126.64Z" fill="#D50058"/>
<path d="M6.86 237.3C10.6487 237.3 13.72 234.229 13.72 230.44C13.72 226.651 10.6487 223.58 6.86 223.58C3.07133 223.58 0 226.651 0 230.44C0 234.229 3.07133 237.3 6.86 237.3Z" fill="#D50058"/>
</g>
<defs>
<clipPath id="clip0_2_157">
<rect width="236.86" height="237.3" fill="white"/>
</clipPath>
</defs>
</svg>
