<svg width="231" height="195" viewBox="0 0 231 195" fill="none" xmlns="http://www.w3.org/2000/svg">
<g clip-path="url(#clip0_2_105)">
<path d="M0.589996 142.35C0.589996 142.35 28.75 77.78 58.97 79.84C89.19 81.9 81.64 116.24 81.64 116.24C81.64 116.24 89.58 40.52 136.59 45.49C136.59 45.49 154.73 47.2 155.14 68.16L171.63 45.49" stroke="black" stroke-width="1.29" stroke-miterlimit="10"/>
<path d="M125.26 138.92H70.65V193.53H125.26V138.92Z" stroke="black" stroke-width="1.29" stroke-miterlimit="10"/>
<path d="M180.55 81.22H125.26V193.53H180.55V81.22Z" stroke="black" stroke-width="1.29" stroke-miterlimit="10"/>
<path d="M205.63 50.14C219.476 50.14 230.7 38.9158 230.7 25.07C230.7 11.2242 219.476 0 205.63 0C191.784 0 180.56 11.2242 180.56 25.07C180.56 38.9158 191.784 50.14 205.63 50.14Z" fill="#005DB9"/>
<path d="M52.18 185.38V131.36L79.19 158.37L52.18 185.38Z" fill="#E4BAB4"/>
</g>
<defs>
<clipPath id="clip0_2_105">
<rect width="230.7" height="194.17" fill="white"/>
</clipPath>
</defs>
</svg>
