<svg width="171" height="238" viewBox="0 0 171 238" fill="none" xmlns="http://www.w3.org/2000/svg">
<g clip-path="url(#clip0_2_111)">
<path d="M120.53 100.58C148.304 100.58 170.82 78.0644 170.82 50.29C170.82 22.5156 148.304 0 120.53 0C92.7556 0 70.24 22.5156 70.24 50.29C70.24 78.0644 92.7556 100.58 120.53 100.58Z" fill="#005DB9"/>
<path d="M111.67 237.42C120.65 237.42 127.93 230.14 127.93 221.16C127.93 212.18 120.65 204.9 111.67 204.9C102.69 204.9 95.41 212.18 95.41 221.16C95.41 230.14 102.69 237.42 111.67 237.42Z" fill="black"/>
<path d="M101.09 169.44C110.578 169.44 118.27 161.748 118.27 152.26C118.27 142.772 110.578 135.08 101.09 135.08C91.6017 135.08 83.91 142.772 83.91 152.26C83.91 161.748 91.6017 169.44 101.09 169.44Z" fill="#E4BAB4"/>
<path d="M116.354 98.4415L0.785698 127.063L8.23081 157.125L123.799 128.503L116.354 98.4415Z" stroke="black" stroke-width="1.29" stroke-miterlimit="10"/>
<path d="M146.657 179.649L30.1771 154.996L23.7645 185.295L140.244 209.947L146.657 179.649Z" stroke="black" stroke-width="1.29" stroke-miterlimit="10"/>
</g>
<defs>
<clipPath id="clip0_2_111">
<rect width="170.82" height="237.42" fill="white"/>
</clipPath>
</defs>
</svg>
