<svg width="190" height="294" viewBox="0 0 190 294" fill="none" xmlns="http://www.w3.org/2000/svg">
<g clip-path="url(#clip0_2_89)">
<path d="M156.83 82.51C154.56 66.07 140.27 44.93 112.68 44.93C85.09 44.93 70.8 66.07 68.53 82.51C66.3 98.67 70.5 108 78.52 121.14C87.29 135.51 90.61 155.3 90.61 155.3H134.76C134.76 155.3 138.08 135.51 146.85 121.14C154.86 108 159.07 98.67 156.84 82.51H156.83Z" fill="#F9F1EF"/>
<path d="M52.1655 258.696L24.7138 195.228L-0.0123582 205.923L27.4393 269.391L52.1655 258.696Z" fill="#005DB9"/>
<path d="M75.62 257.06C75.62 257.06 156.52 259.06 162.7 189.53C162.7 189.53 166.7 158.22 156.47 158.81C156.47 158.81 150.53 157.97 150.33 169.94C150.13 181.91 149.5 189.23 146.1 197.14" stroke="black" stroke-width="1.29" stroke-miterlimit="10"/>
<path d="M146.11 197.14C149.51 189.23 150.14 181.91 150.34 169.94C150.34 169.94 149.89 159.06 143.22 161.07C143.22 161.07 140.41 160.72 140.01 173.63C139.61 186.54 132.84 199.25 132.84 199.25" stroke="black" stroke-width="1.29" stroke-miterlimit="10"/>
<path d="M46.12 201.92C46.12 201.92 65.25 151.61 71.08 147.47C77.57 142.85 82.53 144.15 83.88 149.11C85.35 154.49 82.89 189.68 88.45 200.16C94.01 210.65 106.49 208.26 111.97 201.67C117.44 195.07 124.87 187 126.32 169.39C127.76 151.78 136.24 157.79 136.24 157.79C136.24 157.79 140.6 160.99 140 173.63" stroke="black" stroke-width="1.29" stroke-miterlimit="10"/>
<path d="M17.16 212.08L37.5 200.1L67.94 261.33L8.26001 293.2" stroke="black" stroke-width="1.29" stroke-miterlimit="10"/>
<path d="M150.54 75.13C148.27 58.69 133.98 37.55 106.39 37.55C78.8 37.55 64.51 58.69 62.24 75.13C60.01 91.29 64.21 100.62 72.23 113.76C81 128.13 84.32 147.92 84.32 147.92H128.47C128.47 147.92 131.79 128.13 140.56 113.76C148.57 100.62 152.78 91.29 150.55 75.13H150.54Z" stroke="black" stroke-width="1.29" stroke-miterlimit="10"/>
<path d="M106.39 147.08C96.7 147.08 88.14 146.62 83.13 145.92L87.54 176.3C87.67 177.22 96.11 177.95 106.39 177.95C116.67 177.95 125.1 177.22 125.24 176.3L129.65 145.92C124.65 146.62 116.08 147.08 106.39 147.08Z" fill="black"/>
<path d="M106.39 183.17C113.028 183.17 118.41 179.333 118.41 174.6C118.41 169.867 113.028 166.03 106.39 166.03C99.7515 166.03 94.37 169.867 94.37 174.6C94.37 179.333 99.7515 183.17 106.39 183.17Z" fill="black"/>
<path d="M118.13 109.69L120.19 95.57H120.17C120.26 95.02 120.35 94.46 120.44 93.89C121.97 83.41 121.28 73.07 118.56 73.07C116.88 73.07 115.07 77.28 113.81 83.14C113.36 77.28 112.14 73.07 110.45 73.07C108.76 73.07 107.25 77.28 106.39 83.14C105.54 77.28 104.02 73.07 102.33 73.07C100.64 73.07 99.42 77.28 98.97 83.14C97.71 77.28 95.9 73.07 94.22 73.07C91.51 73.07 90.81 83.41 92.34 93.89C92.42 94.46 92.51 95.03 92.61 95.57L94.65 109.69" stroke="black" stroke-width="1.29" stroke-miterlimit="10"/>
<path d="M67.88 38.38L52.22 19.72" stroke="black" stroke-width="1.29" stroke-miterlimit="10"/>
<path d="M47.39 73.88L23.39 69.65" stroke="black" stroke-width="1.29" stroke-miterlimit="10"/>
<path d="M106.39 0V24.37" stroke="black" stroke-width="1.29" stroke-miterlimit="10"/>
<path d="M160.57 19.72L144.91 38.38" stroke="black" stroke-width="1.29" stroke-miterlimit="10"/>
<path d="M189.4 69.65L165.4 73.88" stroke="black" stroke-width="1.29" stroke-miterlimit="10"/>
</g>
<defs>
<clipPath id="clip0_2_89">
<rect width="189.51" height="293.77" fill="white"/>
</clipPath>
</defs>
</svg>
