<svg width="199" height="250" viewBox="0 0 199 250" fill="none" xmlns="http://www.w3.org/2000/svg">
<g clip-path="url(#clip0_2_131)">
<path d="M165.191 199.67L100.638 224.462L110.297 249.611L174.85 224.819L165.191 199.67Z" fill="#E4BAB4"/>
<path d="M34.23 81.49C36.25 76.99 38.67 73.37 41.49 70.61C44.31 67.86 47.93 64.87 52.36 61.64C57.07 58.16 60.46 55.2 62.54 52.78C64.62 50.36 65.65 47.27 65.65 43.52C65.65 38.68 64.01 34.86 60.72 32.04C57.44 29.22 53.1 27.81 47.74 27.81C42.38 27.81 38.07 29.35 34.84 32.44C31.63 35.53 30 39.63 30 44.73C30 47.02 30.34 49.1 31.02 50.98L1.8 55.6C1.13 53.99 0.65 52.35 0.39 50.67C0.13 48.99 0 46.61 0 43.52C0 35.59 2.07 28.31 6.23 21.66C10.39 15.01 16.13 9.74 23.46 5.85C30.77 1.95 38.87 0 47.74 0C56.61 0 64.49 1.89 71.81 5.64C79.14 9.4 84.91 14.61 89.14 21.26C93.37 27.91 95.48 35.33 95.48 43.52C95.48 49.16 94.55 53.96 92.66 57.92C90.77 61.88 88.5 65.14 85.81 67.69C83.12 70.24 79.63 73.06 75.33 76.15C70.1 79.91 66.2 83.3 63.66 86.32C61.1 89.34 59.82 93.21 59.82 97.9H31.21C31.21 91.46 32.23 85.98 34.23 81.48V81.49Z" fill="black"/>
<path d="M48.49 139.44C45.67 136.63 44.27 133.15 44.27 129.01C44.27 124.87 45.67 121.4 48.49 118.58C51.3 115.77 54.78 114.36 58.92 114.36C63.06 114.36 66.54 115.77 69.36 118.58C72.17 121.4 73.58 124.87 73.58 129.01C73.58 133.15 72.16 136.63 69.36 139.44C66.54 142.25 63.06 143.66 58.92 143.66C54.78 143.66 51.3 142.25 48.49 139.44Z" fill="#005DB9"/>
<path d="M164.53 176.17C164.53 176.17 169.89 95.42 100.68 86.36C100.68 86.36 69.57 81.06 69.72 91.3C69.72 91.3 68.63 97.2 80.58 97.9C92.53 98.6 99.82 99.53 107.58 103.25" stroke="black" stroke-width="1.29" stroke-miterlimit="10"/>
<path d="M107.58 103.25C99.82 99.53 92.53 98.59 80.58 97.9C80.58 97.9 69.69 97.9 71.42 104.65C71.42 104.65 70.95 107.44 83.83 108.37C96.71 109.3 109.13 116.59 109.13 116.59" stroke="black" stroke-width="1.29" stroke-miterlimit="10"/>
<path d="M108.2 203.35C108.2 203.35 62.91 161.55 59.01 155.55C54.66 148.88 56.17 143.97 61.18 142.82C66.61 141.58 77.78 150.73 77.78 150.73C77.78 150.73 97.49 166.09 108.2 160.97C118.91 155.85 117.05 143.28 110.68 137.54C104.32 131.8 96.56 124.04 79.02 121.87C61.48 119.7 67.85 111.47 67.85 111.47C67.85 111.47 71.23 107.24 83.83 108.37" stroke="black" stroke-width="1.29" stroke-miterlimit="10"/>
<path d="M117.16 232.71L106.03 211.89L168.47 184.02L197.84 244.97" stroke="black" stroke-width="1.29" stroke-miterlimit="10"/>
</g>
<defs>
<clipPath id="clip0_2_131">
<rect width="198.42" height="249.6" fill="white"/>
</clipPath>
</defs>
</svg>
